<?xml version="1.0" encoding="UTF-8" standalone="no"?><!DOCTYPE svg PUBLIC "-//W3C//DTD SVG 1.1//EN" "http://www.w3.org/Graphics/SVG/1.1/DTD/svg11.dtd"><svg width="100%" height="100%" viewBox="0 0 306 186" version="1.1" xmlns="http://www.w3.org/2000/svg" xmlns:xlink="http://www.w3.org/1999/xlink" xml:space="preserve" xmlns:serif="http://www.serif.com/" style="fill-rule:evenodd;clip-rule:evenodd;stroke-linecap:round;stroke-linejoin:round;stroke-miterlimit:1.5;"><g><g><path d="M256.253,91.936c2.027,18.908 -5.077,38.459 -20.708,51.617c-15.631,13.158 -36.108,16.823 -54.393,11.602l31.797,-26.766c6.966,-5.864 7.86,-16.279 1.997,-23.245l-21.247,-25.241c-5.864,-6.965 -16.279,-7.86 -23.245,-1.997l-31.797,26.766c-2.026,-18.908 5.078,-38.459 20.709,-51.617c15.631,-13.157 36.107,-16.823 54.393,-11.601l46.315,-38.987c0.41,-0.346 0.833,-0.668 1.266,-0.967l42.397,50.366c-0.368,0.376 -0.758,0.738 -1.169,1.083l-46.315,38.987Z" style="stroke:#fff;stroke-width:3px;"/><g><path d="M167.448,82.73l33.751,12.224l6.289,35.343l-27.463,23.117l-33.751,-12.224l-6.289,-35.343l27.463,-23.117Z" style="fill:#fff;"/><path d="M170.326,94.435c13.046,-1.882 25.166,7.181 27.048,20.227c1.882,13.046 -7.182,25.165 -20.227,27.047c-13.046,1.882 -25.166,-7.181 -27.048,-20.227c-1.882,-13.046 7.182,-25.165 20.227,-27.047Z"/><g id="Bug"><g id="Legs-Left" serif:id="Legs Left"><path d="M164.115,122.848l-3.596,3.719l2.004,3.748" style="fill:none;stroke:#fff;stroke-width:1px;"/><path d="M161.383,118.218l-4.783,-1.196l-2.244,3.609" style="fill:none;stroke:#fff;stroke-width:1px;"/><path d="M170.848,127.248l-1.469,5.876l3.61,2.244" style="fill:none;stroke:#fff;stroke-width:1px;"/></g><g id="Legs-Right" serif:id="Legs Right"><path d="M180.526,109.19l2.952,-2.855l3.748,2.004" style="fill:none;stroke:#fff;stroke-width:1px;"/><path d="M174.587,105.032l-0.654,-2.615l3.61,-2.244" style="fill:none;stroke:#fff;stroke-width:1px;"/><path d="M184.529,116.572l5.507,-1.376l2.243,3.609" style="fill:none;stroke:#fff;stroke-width:1px;"/></g><g id="Body"><path d="M159.729,105.995l-2.432,-1.078l-0.391,4.022" style="fill:none;stroke:#fff;stroke-width:1px;"/><path d="M162.897,103.128l-1.246,-2.565l4.021,-0.39" style="fill:none;stroke:#fff;stroke-width:1px;"/><circle cx="164.659" cy="108.146" r="4.172" style="stroke:#fff;stroke-width:1px;"/><path d="M185.172,128.707c0.51,-13.657 -9.731,-29.829 -19.72,-19.72l19.72,19.72" style="fill:#101010;stroke:#fff;stroke-width:1px;"/><path d="M165.48,108.939c-10.216,10.242 5.877,20.415 19.72,19.719l-19.72,-19.719" style="fill:#101010;stroke:#fff;stroke-width:1px;"/></g></g></g></g><g><path d="M71.795,93.549l-17.949,31.088l-35.897,0l-17.949,-31.088l17.949,-31.088l35.897,-0l17.949,31.088Z" style="fill:#fff;"/><path d="M59.767,94.333c-0.433,13.173 -11.479,23.518 -24.653,23.085c-13.174,-0.433 -23.518,-11.479 -23.086,-24.653c0.433,-13.174 11.48,-23.518 24.653,-23.085c13.174,0.432 23.518,11.479 23.086,24.653Z" style="fill:#101010;"/></g><g><path d="M133.718,154.157l-17.949,31.088l-35.898,-0l-17.948,-31.088l17.948,-31.089l35.898,0l17.949,31.089Z" style="fill:#fff;"/><path d="M121.689,154.94c-0.432,13.174 -11.479,23.518 -24.653,23.086c-13.173,-0.433 -23.517,-11.479 -23.085,-24.653c0.433,-13.174 11.479,-23.518 24.653,-23.085c13.174,0.432 23.518,11.479 23.085,24.652Z" style="fill:#101010;"/></g></g></svg>