<svg 
xmlns="http://www.w3.org/2000/svg" 
xml:space="preserve" 
style="fill-rule:evenodd;clip-rule:evenodd;stroke-linecap:round;stroke-linejoin:round;stroke-miterlimit:1.5" 
viewBox="0 0 553 399">
<path d="M229.331 11.942C229.331 5.627 224.204.5 217.889.5H11.942C5.627.5.5 5.627.5 11.942v261.845c0 6.315 5.127 11.442 11.442 11.442h205.947c6.315 0 11.442-5.127 11.442-11.442V11.942Z" style="fill:#001932;stroke:#fff;stroke-width:1px"/>
<path d="M36.262 8.095H14.568M36.262 94.836H14.568" style="fill:none;stroke:#3392c5;stroke-width:8.07px"/>
<path d="M125.957 21.461H25.415" style="fill:none;stroke:#c74400;stroke-width:8.07px"/>
<path d="M90.318 36.224H25.415M125.957 51.964H25.415" style="fill:none;stroke:#898989;stroke-width:8.07px"/>
<path d="M112.998 66.076H25.415M142.946 79.526H25.415" style="fill:none;stroke:#c74400;stroke-width:8.07px"/>
<path d="M34.007 109.439H14.568M43.727 122.017H24.288M43.727 146.168H24.288M43.727 157.001H24.288M43.727 224.611H24.288M49.685 239.286h-19.44M59.404 254.485H39.965" style="fill:none;stroke:#3392c5;stroke-width:8.07px"/>
<path d="M135.915 169.807H35.373" style="fill:none;stroke:#c74400;stroke-width:8.07px"/>
<path d="M99.709 133.319H34.806" style="fill:none;stroke:#898989;stroke-width:8.07px"/>
<path d="M105.52 182.716H35.373" style="fill:none;stroke:#c74400;stroke-width:8.07px"/>
<path d="M134.734 195.926H35.373" style="fill:none;stroke:#898989;stroke-width:8.07px"/>
<path d="M122.442 210.857H35.373M120.21 264.67H54.375M142.798 277.579H54.375" style="fill:none;stroke:#c74400;stroke-width:8.07px"/>
<path d="M378.044 64.757c0-6.315-5.127-11.442-11.441-11.442H160.655c-6.315 0-11.442 5.127-11.442 11.442v261.845c0 6.315 5.127 11.442 11.442 11.442h205.948c6.314 0 11.441-5.127 11.441-11.442V64.757Z" style="fill:#001932;stroke:#fff;stroke-width:1px"/>
<path d="M253.067 300.179h-14.364" style="fill:none;stroke:#ffc600;stroke-width:8.07px"/>
<path d="M312.494 316.099h-3.96" style="fill:none;stroke:#8dcea8;stroke-width:8.07px"/>
<path d="M305.337 330.863h-19.522" style="fill:none;stroke:#c74400;stroke-width:8.07px"/>
<path d="M299.255 316.099h-30.853M277.482 330.863h-9.08" style="fill:none;stroke:#898989;stroke-width:8.07px"/>
<path d="M257.854 309.944h-3.539M239.818 235.364h-16.726M270.956 235.364h-24.091" style="fill:none;stroke:#ffc600;stroke-width:8.07px"/>
<path d="M283.227 251.285h-3.96M301.235 266.048h-3.96" style="fill:none;stroke:#8dcea8;stroke-width:8.07px"/>
<path d="M299.255 280.39h-26.88" style="fill:none;stroke:#c74400;stroke-width:8.07px"/>
<path d="M270.346 251.285H252.79M287.687 266.048H252.79M263.833 280.39H252.79" style="fill:none;stroke:#898989;stroke-width:8.07px"/>
<path d="M242.243 245.129h-3.54M242.243 289.898h-3.54M215.528 177.135h-22.504M229.905 177.135h-7.583M249.343 177.135h-12.922" style="fill:none;stroke:#ffc600;stroke-width:8.07px"/>
<path d="M240.279 193.055h-17.556M250.417 207.818h-27.694" style="fill:none;stroke:#898989;stroke-width:8.07px"/>
<path d="M262.719 193.055h-13.52" style="fill:none;stroke:#c74400;stroke-width:8.07px"/>
<path d="M262.719 207.818h-3.96" style="fill:none;stroke:#8dcea8;stroke-width:8.07px"/>
<path d="M212.175 186.899h-3.539M212.175 216.301h-3.539M179.3 76.308h-14.363M184.469 65.145h-19.532M201.817 76.308h-14.364M201.817 65.145h-9.695M218.339 76.308h-8.195M224.508 65.145h-14.364" style="fill:none;stroke:#ffc600;stroke-width:8.07px"/>
<path d="M212.191 92.229h-17.556M229.782 106.992h-35.397M212.191 122.732h-17.556M224.905 136.844h-30.27M236.421 150.866h-41.786" style="fill:none;stroke:#898989;stroke-width:8.07px"/>
<path d="M225.071 92.229h-3.959M244.28 106.992h-3.96" style="fill:none;stroke:#8dcea8;stroke-width:8.07px"/>
<path d="M242.093 122.732h-20.981" style="fill:none;stroke:#c74400;stroke-width:8.07px"/>
<path d="M238.288 136.844h-3.96" style="fill:none;stroke:#8dcea8;stroke-width:8.07px"/>
<path d="M268.258 150.866h-20.895" style="fill:none;stroke:#c74400;stroke-width:8.07px"/>
<path d="M184.088 86.073h-3.54M185.858 158.045h-3.54" style="fill:none;stroke:#ffc600;stroke-width:8.07px"/>
<path d="M551.853 124.357c0-6.314-5.127-11.441-11.442-11.441H334.463c-6.315 0-11.441 5.127-11.441 11.441v261.846c0 6.315 5.126 11.441 11.441 11.441h205.948c6.315 0 11.442-5.126 11.442-11.441V124.357Z" style="fill:#001932;stroke:#fff;stroke-width:1px"/>
<path d="M402.416 320.32h-14.364M400.201 385.282h-14.627M493.666 330.483h-35.782" style="fill:none;stroke:#3392c5;stroke-width:8.07px"/>
<path d="M475.775 339.716h-40.611" style="fill:none;stroke:#c74400;stroke-width:8.07px"/>
<path d="M470.477 348.859h-15.791" style="fill:none;stroke:#3392c5;stroke-width:8.07px"/>
<path d="M483.114 359.027h-38.887M450.644 330.483h-36.157" style="fill:none;stroke:#c74400;stroke-width:8.07px"/>
<path d="M428.191 339.716h-6.904" style="fill:none;stroke:#ffc600;stroke-width:8.07px"/>
<path d="M446.974 348.859h-35.343" style="fill:none;stroke:#c74400;stroke-width:8.07px"/>
<path d="M437.437 359.027h-8.134M407.203 330.084h-9.047" style="fill:none;stroke:#ffc600;stroke-width:8.07px"/>
<path d="M414.487 339.716h-16.331" style="fill:none;stroke:#3392c5;stroke-width:8.07px"/>
<path d="M475.775 377.558h-40.611" style="fill:none;stroke:#c74400;stroke-width:8.07px"/>
<path d="M428.191 377.558h-6.904" style="fill:none;stroke:#3392c5;stroke-width:8.07px"/>
<path d="M414.487 377.558h-16.331M404.484 348.859h-6.328" style="fill:none;stroke:#ffc600;stroke-width:8.07px"/>
<path d="M470.477 368.411h-15.791" style="fill:none;stroke:#c74400;stroke-width:8.07px"/>
<path d="M446.974 368.411h-35.343" style="fill:none;stroke:#3392c5;stroke-width:8.07px"/>
<path d="M404.484 368.411h-6.328" style="fill:none;stroke:#ffc600;stroke-width:8.07px"/>
<path d="M422.647 358.921h-24.491M388.727 256.166h-16.726M473.412 266.213h-32.518M500.639 276.549H444.12" style="fill:none;stroke:#3392c5;stroke-width:8.07px"/><path d="M486.992 286.58h-46.098M433.42 266.213h-26.7M436.597 276.549h-13.884" style="fill:none;stroke:#c74400;stroke-width:8.07px"/>
<path d="M398.997 265.931h-11.384M403.899 286.58h-16.286" style="fill:none;stroke:#ffc600;stroke-width:8.07px"/>
<path d="M433.921 286.58h-22.416M415.42 276.659h-27.807" style="fill:none;stroke:#3392c5;stroke-width:8.07px"/>
<path d="M480.586 298.455h-28.532" style="fill:none;stroke:#c74400;stroke-width:8.07px"/>
<path d="M444.643 298.455H431.5" style="fill:none;stroke:#ffc600;stroke-width:8.07px"/>
<path d="M424.546 298.455h-36.933" style="fill:none;stroke:#3392c5;stroke-width:8.07px"/>
<path d="M450.877 310.237h-26.88" style="fill:none;stroke:#c74400;stroke-width:8.07px"/>
<path d="M416.759 310.237h-18.057" style="fill:none;stroke:#3392c5;stroke-width:8.07px"/>
<path d="M391.688 310.237h-4.075" style="fill:none;stroke:#ffc600;stroke-width:8.07px"/>
<path d="M378.63 208.772h-22.504M403.381 221.31h-8.48" style="fill:none;stroke:#3392c5;stroke-width:8.07px"/>
<path d="M413.519 232.466h-18.618" style="fill:none;stroke:#ffc600;stroke-width:8.07px"/>
<path d="M461.657 221.31h-49.356M472.876 232.466h-51.015" style="fill:none;stroke:#c74400;stroke-width:8.07px"/>
<path d="M387.613 220.676h-15.875" style="fill:none;stroke:#ffc600;stroke-width:8.07px"/>
<path d="M387.613 232.664h-15.875" style="fill:none;stroke:#3392c5;stroke-width:8.07px"/>
<path d="M413.519 243.966h-30.204" style="fill:none;stroke:#c74400;stroke-width:8.07px"/>
<path d="M453.235 243.966h-31.374" style="fill:none;stroke:#3392c5;stroke-width:8.07px"/>
<path d="M375.277 244.165h-3.539" style="fill:none;stroke:#ffc600;stroke-width:8.07px"/>
<path d="M353.109 129.225h-14.364M385.999 139.725h-17.555M391.523 150.547h-35.397M393.366 162.754h-17.388" style="fill:none;stroke:#3392c5;stroke-width:8.07px"/>
<path d="M398.713 174.501h-30.269" style="fill:none;stroke:#c74400;stroke-width:8.07px"/>
<path d="M407.556 185.764h-26.974" style="fill:none;stroke:#3392c5;stroke-width:8.07px"/>
<path d="M414.714 139.725H394.92M444.027 150.547h-22.166M461.657 162.754h-61.212" style="fill:none;stroke:#c74400;stroke-width:8.07px"/>
<path d="M436.979 174.501h-31.564" style="fill:none;stroke:#ffc600;stroke-width:8.07px"/>
<path d="M442.066 185.764h-27.173" style="fill:none;stroke:#c74400;stroke-width:8.07px"/>
<path d="M359.647 139.725h-3.539M373.587 185.907h-17.461" style="fill:none;stroke:#ffc600;stroke-width:8.07px"/>
<path d="M361.549 174.501h-5.423" style="fill:none;stroke:#3392c5;stroke-width:8.07px"/>
<path d="M368.444 162.754h-12.318M414.714 150.547H398.86M391.523 198.046h-35.397" style="fill:none;stroke:#ffc600;stroke-width:8.07px"/>
<path d="M444.027 150.547h-22.166M444.027 198.046h-22.166" style="fill:none;stroke:#c74400;stroke-width:8.07px"/>
<path d="M414.714 198.046H398.86" style="fill:none;stroke:#3392c5;stroke-width:8.07px"/>

</svg>