<?xml version="1.0" encoding="UTF-8" standalone="no"?><!DOCTYPE svg PUBLIC "-//W3C//DTD SVG 1.1//EN" "http://www.w3.org/Graphics/SVG/1.1/DTD/svg11.dtd"><svg width="100%" height="100%" viewBox="0 0 325 325" version="1.1" xmlns="http://www.w3.org/2000/svg" xmlns:xlink="http://www.w3.org/1999/xlink" xml:space="preserve" xmlns:serif="http://www.serif.com/" style="fill-rule:evenodd;clip-rule:evenodd;stroke-linecap:round;stroke-linejoin:round;stroke-miterlimit:1.5;"><g id="CSS3-Logo" serif:id="CSS3 Logo"><g id="Outline"></g><g id="Logo"><g id="Background"><path d="M162.611,0.5l0.286,323.707c94.981,-0.565 160.942,-78.659 161.353,-161.854c0.452,-91.762 -75.564,-160.336 -161.639,-161.853Z" style="fill:#2aa9e0;stroke:#2aa9e0;stroke-width:1px;"/><path d="M162.14,0.5l-0.285,323.707c-94.981,-0.565 -160.943,-78.659 -161.353,-161.854c-0.453,-91.762 75.563,-160.336 161.638,-161.853Z" style="fill:#0070ba;stroke:#0070ba;stroke-width:1px;"/></g><g id="CSS3"><path d="M162.399,70.097l86.887,-0.093l-3.219,33.712l-69.488,31.781l66.723,0.008l-8.235,100.322l-72.668,18.783l-0,-32.701l39.74,-13.218l3.024,-40.772l-42.764,0.315l-0,-98.137Z" style="fill:#fff;stroke:#fff;stroke-width:1px;"/><path d="M162.093,221.755l-39.716,-8.57l-2.209,-25.85l-32.837,-0.166l5.313,49.568l69.449,18.118l0,-33.1Z" style="fill:#cecfd0;stroke:#cecfd0;stroke-width:1px;"/><path d="M162.093,70.119l-86.752,-0.022l3.519,30.229l81.809,0.4l-78.067,34.397l2.959,33.011l76.532,0.122l0,-98.137Z" style="fill:#cecfd0;stroke:#cecfd0;stroke-width:1px;"/></g></g></g></svg>