<?xml version="1.0" encoding="UTF-8" standalone="no"?><!DOCTYPE svg PUBLIC "-//W3C//DTD SVG 1.1//EN" "http://www.w3.org/Graphics/SVG/1.1/DTD/svg11.dtd"><svg width="100%" height="100%" viewBox="0 0 741 321" version="1.1" xmlns="http://www.w3.org/2000/svg" xmlns:xlink="http://www.w3.org/1999/xlink" xml:space="preserve" xmlns:serif="http://www.serif.com/" style="fill-rule:evenodd;clip-rule:evenodd;stroke-linecap:round;stroke-linejoin:round;stroke-miterlimit:1.5;"><g><path d="M39.591,167.911l-35.591,62.617l62.617,-35.59l365.457,-0l-0,-190.938l-392.483,0l-0,163.911Z" style="fill:#009a53;"/><clipPath id="_clip1"><path d="M39.591,167.911l-35.591,62.617l62.617,-35.59l365.457,-0l-0,-190.938l-392.483,0l-0,163.911Z"/></clipPath><g clip-path="url(#_clip1)"><g><path d="M330.456,64.598l-120.752,-0" style="fill:none;stroke:#fff;stroke-width:9.48px;"/><path d="M191.152,64.598l-120.752,-0" style="fill:none;stroke:#fff;stroke-width:9.48px;"/><path d="M226.035,117.264l-155.635,0" style="fill:none;stroke:#fff;stroke-width:9.48px;"/><path d="M142.617,91.22l-72.217,0" style="fill:none;stroke:#fff;stroke-width:9.48px;"/><path d="M250.096,91.22l-89.475,0" style="fill:none;stroke:#fff;stroke-width:9.48px;"/></g></g><path d="M39.591,167.911l-35.591,62.617l62.617,-35.59l365.457,-0l-0,-190.938l-392.483,0l-0,163.911Z" style="fill:none;stroke:#09b033;stroke-width:8px;"/><path d="M700.745,253.984l35.591,62.617l-62.617,-35.59l-365.456,-0l-0,-190.938l392.482,0l0,163.911Z" style="fill:#0081d6;"/><clipPath id="_clip2"><path d="M700.745,253.984l35.591,62.617l-62.617,-35.59l-365.456,-0l-0,-190.938l392.482,0l0,163.911Z"/></clipPath><g clip-path="url(#_clip2)"><g><path d="M421.588,147.196l125.506,0" style="fill:none;stroke:#fff;stroke-width:9.48px;"/><path d="M571.31,147.196l106.606,0" style="fill:none;stroke:#fff;stroke-width:9.48px;"/><path d="M571.31,174.481l106.606,-0" style="fill:none;stroke:#fff;stroke-width:9.48px;"/><path d="M514.861,223.669l163.38,0" style="fill:none;stroke:#fff;stroke-width:9.48px;"/><path d="M444.444,199.862l233.472,0" style="fill:none;stroke:#fff;stroke-width:9.48px;"/></g></g><path d="M700.745,253.984l35.591,62.617l-62.617,-35.59l-365.456,-0l-0,-190.938l392.482,0l0,163.911Z" style="fill:none;stroke:#0cceed;stroke-width:8px;"/></g></svg>