<?xml version="1.0" encoding="UTF-8" standalone="no"?><!DOCTYPE svg PUBLIC "-//W3C//DTD SVG 1.1//EN" "http://www.w3.org/Graphics/SVG/1.1/DTD/svg11.dtd"><svg width="100%" height="100%" viewBox="0 0 325 325" version="1.1" xmlns="http://www.w3.org/2000/svg" xmlns:xlink="http://www.w3.org/1999/xlink" xml:space="preserve" xmlns:serif="http://www.serif.com/" style="fill-rule:evenodd;clip-rule:evenodd;stroke-linecap:round;stroke-linejoin:round;stroke-miterlimit:1.5;"><g id="HTML5-Logo" serif:id="HTML5 Logo"><g id="Outline"></g><g id="Logo"><g id="Background"><path d="M162.611,0.5l0.286,323.707c94.981,-0.565 160.942,-78.659 161.353,-161.854c0.452,-91.762 -75.564,-160.336 -161.639,-161.853Z" style="fill:#f16528;stroke:#f16528;stroke-width:1px;"/><path d="M162.14,0.5l-0.285,323.707c-94.981,-0.565 -160.943,-78.659 -161.353,-161.854c-0.453,-91.762 75.563,-160.336 161.638,-161.853Z" style="fill:#e54d26;stroke:#e54d26;stroke-width:1px;"/></g><g id="HTML5"><g><path d="M162.396,68.235l81.64,-0l-2.527,32.83l-79.015,0.361l-0.098,-33.191Z" style="fill:#fff;stroke:#fff;stroke-width:1px;"/><path d="M161.378,133.397l77.742,0.551l-9.049,100.323l-68.065,19.621l0,-35.252l36.782,-10.454l3.307,-39.978l-40.856,-0.567l0.139,-34.244Z" style="fill:#fff;stroke:#fff;stroke-width:1px;"/></g><g><path d="M162.074,68.235l-80.754,0.218l8.357,98.701l72.386,0.56l0.077,-34.328l-42.24,-0.197l-2.264,-31.405l44.493,-0.358l-0.055,-33.191Z" style="fill:#ebebeb;stroke:#ebebeb;stroke-width:1px;"/><path d="M161.993,218.441l0.073,35.389l-67.222,-19.567l-3.692,-51.809l33.842,0.615l1.6,25.351l35.399,10.021Z" style="fill:#ebebeb;stroke:#ebebeb;stroke-width:1px;"/></g></g></g></g></svg>