<?xml version="1.0" encoding="UTF-8" standalone="no"?><!DOCTYPE svg PUBLIC "-//W3C//DTD SVG 1.1//EN" "http://www.w3.org/Graphics/SVG/1.1/DTD/svg11.dtd"><svg width="100%" height="100%" viewBox="0 0 325 325" version="1.1" xmlns="http://www.w3.org/2000/svg" xmlns:xlink="http://www.w3.org/1999/xlink" xml:space="preserve" xmlns:serif="http://www.serif.com/" style="fill-rule:evenodd;clip-rule:evenodd;stroke-linecap:round;stroke-linejoin:round;stroke-miterlimit:1.5;"><g id="Javascript-Logo" serif:id="Javascript Logo"><circle cx="162.353" cy="162.353" r="161.853" style="fill:#f7df1d;stroke:#f7df1d;stroke-width:1px;"/><g><path d="M103.448,64.495c0,0 0.251,120.497 0.273,131.099c0.003,1.338 -0.098,2.674 -0.302,3.997c-4.542,29.116 -35.597,25.813 -45.844,0.978l-31.594,18.387c10.074,22.525 28.923,35.371 59.356,35.442c42.382,-0.527 55.435,-24.644 56.486,-58.416l-0.294,-132.233l-38.173,0.336" style="stroke:#000;stroke-width:1px;"/><path d="M255.848,111.943c-12.343,-22.074 -40.319,-21.809 -43.347,-0c-0.586,9.026 7.666,18.372 21.211,23.566c47.031,17.161 62.758,36.458 63.599,60.547c1.123,32.149 -17.047,52.36 -52.53,57.723c-42.647,4.748 -67.476,-11.211 -82.428,-38.651l31.502,-18.726c8.749,14.431 20.497,23.639 37.33,23.998c29.936,-1.284 36.658,-24.714 13.753,-37.751l-0.151,-0.063l-33.827,-15.899c-14.002,-6.387 -20.617,-12.472 -28.487,-22.482c-7.303,-9.557 -9.537,-24.275 -7.859,-41.017c6.344,-28.459 26.305,-38.9 52.115,-41.604c29.762,-1.001 47.776,11.051 58.676,31.008l-29.415,18.861" style="stroke:#000;stroke-width:1px;"/></g></g></svg>