<?xml version="1.0" encoding="UTF-8" standalone="no"?><!DOCTYPE svg PUBLIC "-//W3C//DTD SVG 1.1//EN" "http://www.w3.org/Graphics/SVG/1.1/DTD/svg11.dtd"><svg width="100%" height="100%" viewBox="0 0 29 37" version="1.1" xmlns="http://www.w3.org/2000/svg" xmlns:xlink="http://www.w3.org/1999/xlink" xml:space="preserve" xmlns:serif="http://www.serif.com/" style="fill-rule:evenodd;clip-rule:evenodd;stroke-linecap:round;stroke-linejoin:round;stroke-miterlimit:1.5;"><g><g><path d="M28.244,9.691l-6.94,-9.207l-13.88,0c-3.83,0 -6.94,3.11 -6.94,6.94l0,22.13c0,3.83 3.11,6.94 6.94,6.94l13.88,-0c3.831,-0 6.94,-3.11 6.94,-6.94l0,-19.863Z" style="fill:#101010;stroke:#fff;stroke-width:0.97px;"/><path d="M28.244,9.72c0.143,-1.075 -6.976,-10.243 -6.976,-9.132c-0,0 0.085,2.79 0.136,4.458c0.028,0.906 0.324,1.784 0.852,2.522c0.509,0.71 1.05,1.127 2.237,1.406l3.751,0.746Z" style="fill:#101010;stroke:#fff;stroke-width:0.97px;"/></g><g><path d="M4.497,30.333l14.53,-0" style="fill:none;stroke:#fff;stroke-width:0.97px;"/><path d="M4.497,27.111l10.917,0" style="fill:none;stroke:#fff;stroke-width:0.97px;"/><path d="M4.497,16.907l20.552,0" style="fill:none;stroke:#fff;stroke-width:0.97px;"/><path d="M11.517,20.358l13.532,0" style="fill:none;stroke:#fff;stroke-width:0.97px;"/><path d="M19.647,23.878l5.402,-0" style="fill:none;stroke:#fff;stroke-width:0.97px;"/><path d="M12.713,23.878l5.402,-0" style="fill:none;stroke:#fff;stroke-width:0.97px;"/><path d="M4.497,20.358l5.402,0" style="fill:none;stroke:#fff;stroke-width:0.97px;"/><path d="M4.497,23.878l6.809,-0" style="fill:none;stroke:#fff;stroke-width:0.97px;"/><path d="M20.504,30.363l4.545,-0" style="fill:none;stroke:#fff;stroke-width:0.97px;"/><path d="M16.915,27.111l8.134,0" style="fill:none;stroke:#fff;stroke-width:0.97px;"/><path d="M12.922,6.167c0,-1.163 -0.944,-2.107 -2.106,-2.107l-4.213,0c-1.162,0 -2.106,0.944 -2.106,2.107l-0,4.411c-0,1.162 0.944,2.106 2.106,2.106l4.213,0c1.162,0 2.106,-0.944 2.106,-2.106l0,-4.411Z" style="fill:#fff;stroke:#fff;stroke-width:0.97px;"/></g></g></svg>