<?xml version="1.0" encoding="UTF-8" standalone="no"?><!DOCTYPE svg PUBLIC "-//W3C//DTD SVG 1.1//EN" "http://www.w3.org/Graphics/SVG/1.1/DTD/svg11.dtd"><svg width="100%" height="100%" viewBox="0 0 283 366" version="1.1" xmlns="http://www.w3.org/2000/svg" xmlns:xlink="http://www.w3.org/1999/xlink" xml:space="preserve" xmlns:serif="http://www.serif.com/" style="fill-rule:evenodd;clip-rule:evenodd;stroke-linecap:round;stroke-linejoin:round;stroke-miterlimit:1.5;"><g><g><path d="M280.564,94.571l-69.572,-92.295l-139.144,-0c-38.398,-0 -69.572,31.174 -69.572,69.572l-0,221.842c-0,38.398 31.174,69.572 69.572,69.572l139.144,0c38.398,0 69.572,-31.174 69.572,-69.572l-0,-199.119Z" style="fill:#101010;stroke:#fff;stroke-width:4.55px;"/><path d="M280.564,94.867c1.428,-10.782 -69.939,-102.685 -69.939,-91.548c0,0 0.857,27.967 1.369,44.681c0.279,9.091 3.253,17.894 8.547,25.29c5.098,7.122 10.518,11.301 22.414,14.098l37.609,7.479Z" style="fill:#101010;stroke:#fff;stroke-width:4.55px;"/></g><g><path d="M42.504,301.498l145.657,-0" style="fill:none;stroke:#fff;stroke-width:12.48px;"/><path d="M42.504,269.205l109.441,-0" style="fill:none;stroke:#fff;stroke-width:12.48px;"/><path d="M42.504,166.911l206.028,0" style="fill:none;stroke:#fff;stroke-width:12.48px;"/><path d="M112.879,201.511l135.653,-0" style="fill:none;stroke:#fff;stroke-width:12.48px;"/><path d="M194.378,236.792l54.154,0" style="fill:none;stroke:#fff;stroke-width:12.48px;"/><path d="M124.868,236.792l54.154,0" style="fill:none;stroke:#fff;stroke-width:12.48px;"/><path d="M42.504,201.511l54.153,-0" style="fill:none;stroke:#fff;stroke-width:12.48px;"/><path d="M42.504,236.792l68.259,0" style="fill:none;stroke:#fff;stroke-width:12.48px;"/><path d="M202.97,301.798l45.562,-0" style="fill:none;stroke:#fff;stroke-width:12.48px;"/><path d="M166.986,269.205l81.546,-0" style="fill:none;stroke:#fff;stroke-width:12.48px;"/><path d="M126.965,59.243c0,-11.654 -9.461,-21.116 -21.115,-21.116l-42.231,0c-11.654,0 -21.115,9.462 -21.115,21.116l-0,44.218c-0,11.654 9.461,21.116 21.115,21.116l42.231,-0c11.654,-0 21.115,-9.462 21.115,-21.116l0,-44.218Z" style="fill:#fff;stroke:#fff;stroke-width:0.97px;"/></g></g></svg>