<?xml version="1.0" encoding="UTF-8" standalone="no"?><!DOCTYPE svg PUBLIC "-//W3C//DTD SVG 1.1//EN" "http://www.w3.org/Graphics/SVG/1.1/DTD/svg11.dtd"><svg width="100%" height="100%" viewBox="0 0 444 119" version="1.1" xmlns="http://www.w3.org/2000/svg" xmlns:xlink="http://www.w3.org/1999/xlink" xml:space="preserve" xmlns:serif="http://www.serif.com/" style="fill-rule:evenodd;clip-rule:evenodd;stroke-linecap:round;stroke-linejoin:round;stroke-miterlimit:1.5;"><g><path d="M1.924,59.196l382.463,0" style="fill:none;stroke:#fff;stroke-width:3.85px;"/><path d="M57.724,59.199c8.202,-0.79 10.885,8.152 11.503,18.451c0.958,15.222 13.584,27.077 28.836,27.077c1.874,0.013 3.027,0.013 3.027,0.013l76.439,0" style="fill:none;stroke:#fff;stroke-width:3.85px;"/><path d="M258.259,59.192c11.61,0.161 12.569,-2.343 12.183,-22.143c-0.067,-6.184 2.342,-12.137 6.691,-16.533c4.349,-4.397 10.276,-6.871 16.46,-6.871c9.101,-0.002 17.359,-0.002 17.359,-0.002l130.443,-0" style="fill:none;stroke:#fff;stroke-width:3.85px;"/><path d="M154.041,104.74l40.566,0c13.717,0 24.837,-11.119 24.837,-24.836l-0,-20.712" style="fill:none;stroke:#fff;stroke-width:3.85px;"/><circle cx="13.643" cy="59.196" r="11.719" style="fill:#00a0ff;stroke:#fff;stroke-width:3.85px;"/><circle cx="320.054" cy="59.196" r="11.719" style="fill:#00a0ff;stroke:#fff;stroke-width:3.85px;"/><circle cx="372.668" cy="59.196" r="11.719" style="fill:#00a0ff;stroke:#fff;stroke-width:3.85px;"/><circle cx="111.66" cy="59.196" r="11.719" style="fill:#00a0ff;stroke:#fff;stroke-width:3.85px;"/><circle cx="165.76" cy="59.196" r="11.719" style="fill:#00a0ff;stroke:#fff;stroke-width:3.85px;"/><circle cx="219.444" cy="59.196" r="11.719" style="fill:#00a0ff;stroke:#fff;stroke-width:3.85px;"/><circle cx="318.568" cy="13.652" r="11.719" style="fill:#eb00ff;stroke:#fff;stroke-width:3.85px;"/><circle cx="372.668" cy="13.643" r="11.719" style="fill:#eb00ff;stroke:#fff;stroke-width:3.85px;"/><circle cx="429.676" cy="13.643" r="11.719" style="fill:#eb00ff;stroke:#fff;stroke-width:3.85px;"/><circle cx="112.809" cy="104.74" r="11.719" style="fill:#00ffa0;stroke:#fff;stroke-width:3.85px;"/><circle cx="165.81" cy="104.74" r="11.719" style="fill:#00ffa0;stroke:#fff;stroke-width:3.85px;"/></g></svg>